<svg width="66" height="22" viewBox="0 0 66 22" fill="none" xmlns="http://www.w3.org/2000/svg">
<g clip-path="url(#clip0_301_5832)">
<mask id="mask0_301_5832" style="mask-type:luminance" maskUnits="userSpaceOnUse" x="0" y="0" width="66" height="22">
<path d="M0 21.5933H65.2199V0.407246H0V21.5933Z" fill="white"/>
</mask>
<g mask="url(#mask0_301_5832)">
<path d="M14.6309 5.15429C13.9777 4.40979 12.797 4.09061 11.2865 4.09061H6.90268C6.75316 4.09053 6.60851 4.14382 6.49478 4.24089C6.38104 4.33795 6.30569 4.47243 6.28227 4.62011L4.45771 16.1976C4.44925 16.2514 4.45253 16.3063 4.46733 16.3586C4.48213 16.4109 4.5081 16.4594 4.54345 16.5007C4.57879 16.542 4.62267 16.5752 4.67207 16.5979C4.72146 16.6206 4.77519 16.6324 4.82956 16.6323H7.53597L8.21569 12.321L8.19462 12.456C8.21759 12.3087 8.29245 12.1743 8.4057 12.0772C8.51894 11.9802 8.66314 11.9267 8.81231 11.9265H10.0984C12.6249 11.9265 14.6032 10.9003 15.1811 7.93171C15.1983 7.84392 15.2131 7.75846 15.226 7.67496C15.3977 6.57773 15.2248 5.83089 14.6313 5.15468" fill="#003087"/>
<path d="M47.7626 10.6619C47.5971 11.7482 46.7676 11.7482 45.9653 11.7482H45.5088L45.8291 9.71994C45.8487 9.59741 45.954 9.50728 46.0781 9.50728H46.2876C46.8339 9.50728 47.3497 9.50728 47.6159 9.81827C47.7747 10.0044 47.8227 10.2806 47.7626 10.6619ZM47.4133 7.82748H44.387C44.2867 7.82753 44.1898 7.86331 44.1136 7.92838C44.0373 7.99346 43.9868 8.08358 43.971 8.18256L42.7482 15.9424C42.7425 15.9784 42.7447 16.0152 42.7547 16.0502C42.7646 16.0852 42.782 16.1177 42.8056 16.1454C42.8293 16.1731 42.8586 16.1953 42.8917 16.2106C42.9247 16.2259 42.9607 16.2338 42.9971 16.2339H44.5501C44.6948 16.2339 44.8181 16.1285 44.8408 15.9857L45.1881 13.785C45.22 13.5809 45.3964 13.4299 45.6032 13.4299H46.5608C48.5547 13.4299 49.705 12.4658 50.0054 10.5534C50.1408 9.7176 50.0109 9.0605 49.6195 8.60046C49.1891 8.09477 48.4263 7.82709 47.4137 7.82709" fill="#009CDE"/>
<path d="M26.1767 10.6597C26.0113 11.746 25.1817 11.746 24.3791 11.746H23.9225L24.2429 9.71774C24.2624 9.59522 24.3677 9.50508 24.4918 9.50508H24.7014C25.2476 9.50508 25.7635 9.50508 26.0296 9.81607C26.1888 10.0022 26.2368 10.2785 26.1767 10.6597ZM25.8275 7.82528H22.8011C22.5943 7.82528 22.4179 7.9759 22.3855 8.18036L21.1623 15.9402C21.1566 15.9762 21.1588 16.013 21.1686 16.0481C21.1785 16.0831 21.1959 16.1156 21.2196 16.1433C21.2432 16.171 21.2726 16.1933 21.3057 16.2085C21.3388 16.2238 21.3748 16.2317 21.4112 16.2317H22.8565C23.0633 16.2317 23.2393 16.0811 23.2717 15.8766L23.6022 13.7832C23.6342 13.5787 23.8105 13.4281 24.0174 13.4281H24.9749C26.9688 13.4281 28.1191 12.4636 28.4196 10.5512C28.555 9.7154 28.425 9.05831 28.0336 8.59827C27.6033 8.09257 26.8404 7.82489 25.8279 7.82489M32.8538 13.4457C32.7133 14.2737 32.0566 14.8297 31.218 14.8297C30.7978 14.8297 30.4611 14.6943 30.2449 14.4383C30.0303 14.1847 29.9499 13.823 30.0178 13.4207C30.1481 12.5997 30.8161 12.0261 31.6418 12.0261C32.0535 12.0261 32.3871 12.1627 32.6079 12.421C32.83 12.6813 32.9174 13.045 32.8538 13.4457ZM34.8734 10.6246H33.4242C33.364 10.6245 33.3057 10.646 33.2599 10.6851C33.2141 10.7242 33.1838 10.7785 33.1745 10.838L33.1113 11.243L33.0098 11.0963C32.6961 10.6409 31.9965 10.4884 31.298 10.4884C29.6971 10.4884 28.3294 11.7019 28.0633 13.4032C27.9248 14.2526 28.1214 15.0638 28.6029 15.63C29.045 16.1501 29.676 16.3667 30.4279 16.3667C31.7187 16.3667 32.4343 15.5379 32.4343 15.5379L32.3695 15.9406C32.3638 15.9766 32.366 16.0134 32.3759 16.0485C32.3858 16.0836 32.4032 16.1162 32.4269 16.1439C32.4506 16.1716 32.4801 16.1938 32.5132 16.209C32.5463 16.2243 32.5824 16.2321 32.6189 16.2321H33.9237C34.1305 16.2321 34.3068 16.0819 34.3392 15.877L35.1228 10.9164C35.1284 10.8804 35.1261 10.8436 35.1162 10.8085C35.1062 10.7734 35.0888 10.7409 35.065 10.7132C35.0413 10.6855 35.0119 10.6632 34.9787 10.648C34.9456 10.6328 34.9095 10.6249 34.873 10.6249" fill="#003087"/>
<path d="M54.4402 13.4457C54.2998 14.2737 53.6431 14.8297 52.8045 14.8297C52.3843 14.8297 52.0476 14.6943 51.8314 14.4383C51.6168 14.1847 51.5364 13.823 51.6043 13.4207C51.7346 12.5997 52.4022 12.0261 53.2283 12.0261C53.6399 12.0261 53.9736 12.1627 54.1944 12.421C54.4164 12.6813 54.5038 13.045 54.4402 13.4457ZM56.4599 10.6246H55.0107C54.9505 10.6245 54.8922 10.646 54.8464 10.6851C54.8006 10.7242 54.7703 10.7785 54.761 10.838L54.6978 11.243L54.5963 11.0963C54.2826 10.6409 53.583 10.4884 52.8845 10.4884C51.2839 10.4884 49.9163 11.7019 49.6498 13.4032C49.5113 14.2526 49.7083 15.0638 50.1898 15.63C50.6319 16.1501 51.2629 16.3667 52.0148 16.3667C53.3059 16.3667 54.0216 15.5379 54.0216 15.5379L53.9568 15.9406C53.951 15.9766 53.953 16.0134 53.9628 16.0485C53.9727 16.0836 53.99 16.1161 54.0136 16.1438C54.0373 16.1716 54.0667 16.1938 54.0998 16.2091C54.1329 16.2243 54.1689 16.2322 54.2053 16.2321H55.5098C55.7166 16.2321 55.8929 16.0819 55.9257 15.877L56.7092 10.9164C56.7149 10.8804 56.7126 10.8436 56.7027 10.8085C56.6927 10.7734 56.6753 10.7409 56.6515 10.7132C56.6278 10.6855 56.5983 10.6632 56.5652 10.648C56.532 10.6328 56.496 10.6249 56.4595 10.6249" fill="#009CDE"/>
<path d="M42.5925 10.6266H41.1355C40.9962 10.6266 40.8662 10.6956 40.7882 10.8111L38.7787 13.7704L37.9269 10.9266C37.9009 10.8399 37.8477 10.7638 37.7751 10.7097C37.7025 10.6556 37.6144 10.6263 37.5238 10.6262H36.0922C36.052 10.6262 36.0125 10.6358 35.9768 10.6542C35.9411 10.6725 35.9103 10.6991 35.8869 10.7318C35.8636 10.7645 35.8484 10.8022 35.8425 10.8419C35.8367 10.8816 35.8404 10.9222 35.8534 10.9602L37.4571 15.6683L35.9486 17.7968C35.9219 17.8346 35.9062 17.879 35.903 17.9251C35.8998 17.9712 35.9094 18.0174 35.9307 18.0584C35.9519 18.0995 35.984 18.1339 36.0235 18.158C36.063 18.182 36.1084 18.1948 36.1546 18.1948H37.61C37.7474 18.1948 37.8765 18.1273 37.9554 18.0142L42.7993 11.0226C42.8256 10.9848 42.841 10.9405 42.8439 10.8946C42.8469 10.8486 42.8371 10.8028 42.8158 10.762C42.7945 10.7211 42.7624 10.6869 42.723 10.6631C42.6837 10.6392 42.6385 10.6266 42.5925 10.6266Z" fill="#003087"/>
<path d="M58.1673 8.04053L56.9249 15.9424C56.9193 15.9784 56.9215 16.0152 56.9314 16.0503C56.9414 16.0853 56.9588 16.1178 56.9825 16.1455C57.0062 16.1732 57.0356 16.1955 57.0687 16.2107C57.1018 16.226 57.1378 16.2339 57.1742 16.2339H58.4233C58.6301 16.2339 58.8064 16.0833 58.8388 15.8788L60.0637 8.11857C60.0694 8.08255 60.0672 8.04572 60.0573 8.01063C60.0473 7.97554 60.0299 7.94302 60.0062 7.9153C59.9825 7.88759 59.9531 7.86536 59.92 7.85013C59.8868 7.8349 59.8508 7.82704 59.8143 7.82709H58.4166C58.3565 7.82694 58.2982 7.84834 58.2525 7.88743C58.2068 7.92651 58.1765 7.98108 58.1673 8.04053Z" fill="#009CDE"/>
<path d="M14.6309 5.15429C13.9777 4.40979 12.797 4.09061 11.2865 4.09061H6.90268C6.75316 4.09053 6.60851 4.14382 6.49478 4.24089C6.38104 4.33795 6.30569 4.47243 6.28227 4.62011L4.45771 16.1976C4.44925 16.2514 4.45253 16.3063 4.46733 16.3586C4.48213 16.4109 4.5081 16.4594 4.54345 16.5007C4.57879 16.542 4.62267 16.5752 4.67207 16.5979C4.72146 16.6206 4.77519 16.6324 4.82956 16.6323H7.53597L8.21569 12.321L8.19462 12.456C8.21759 12.3087 8.29245 12.1743 8.4057 12.0772C8.51894 11.9802 8.66314 11.9267 8.81231 11.9265H10.0984C12.6249 11.9265 14.6032 10.9003 15.1811 7.93171C15.1983 7.84392 15.2131 7.75846 15.226 7.67496C15.3977 6.57773 15.2248 5.83089 14.6313 5.15468" fill="#003087"/>
<path d="M8.94523 7.68979C8.96574 7.56075 9.03156 7.44324 9.13089 7.35836C9.23022 7.27347 9.35655 7.22677 9.48721 7.22662H12.9241C13.331 7.22662 13.7107 7.25316 14.0576 7.30856C14.2472 7.33908 14.4349 7.38103 14.6195 7.43421C14.8291 7.49314 15.032 7.57397 15.2247 7.67535C15.3971 6.57773 15.2239 5.83128 14.6304 5.15468C13.9768 4.41057 12.7965 4.09139 11.286 4.09139H6.90177C6.75238 4.0915 6.60792 4.14487 6.49435 4.24192C6.38077 4.33897 6.30553 4.47334 6.28213 4.62089L4.45679 16.1973C4.44827 16.251 4.4515 16.3059 4.46625 16.3582C4.481 16.4105 4.50693 16.4591 4.54223 16.5004C4.57754 16.5418 4.6214 16.575 4.67078 16.5978C4.72015 16.6205 4.77388 16.6323 4.82826 16.6323H7.53506L8.21478 12.3206L8.94523 7.68979Z" fill="#003087"/>
<path d="M15.2251 7.67238C15.2117 7.75823 15.1967 7.84383 15.1802 7.92913C14.6023 10.8974 12.624 11.924 10.0975 11.924H8.81104C8.6619 11.9241 8.51771 11.9775 8.40451 12.0746C8.29131 12.1717 8.21656 12.3061 8.19375 12.4535L7.5351 16.6294L7.3478 17.814C7.34036 17.861 7.3432 17.9091 7.35613 17.9549C7.36906 18.0008 7.39177 18.0432 7.42271 18.0794C7.45364 18.1156 7.49206 18.1447 7.53531 18.1646C7.57856 18.1845 7.62561 18.1948 7.67323 18.1948H9.95471C10.2247 18.1948 10.4542 17.9982 10.4967 17.7317L10.5189 17.6154L10.9489 14.8902L10.9762 14.7396C10.9967 14.6105 11.0626 14.4929 11.162 14.408C11.2614 14.3231 11.3879 14.2764 11.5186 14.2765H11.86C14.0701 14.2765 15.8006 13.379 16.3063 10.7819C16.517 9.69711 16.4078 8.79069 15.8498 8.15427C15.6726 7.95697 15.4609 7.79366 15.2251 7.67238Z" fill="#009CDE"/>
<path d="M14.6195 7.4308C14.5313 7.40466 14.4404 7.38125 14.3468 7.36056C14.2531 7.33988 14.1564 7.32155 14.0572 7.30594C13.71 7.24936 13.3307 7.22283 12.9233 7.22283H9.48686C9.35606 7.22267 9.22952 7.26931 9.13011 7.35433C9.03071 7.43935 8.965 7.55713 8.94488 7.68638L8.21443 12.318L8.19336 12.4526C8.21617 12.3053 8.29092 12.1709 8.40412 12.0738C8.51732 11.9767 8.66151 11.9232 8.81065 11.9231H10.0971C12.6237 11.9231 14.602 10.8969 15.1798 7.9283C15.197 7.84051 15.2114 7.75544 15.2247 7.67155C15.0721 7.5917 14.9131 7.52461 14.7495 7.47099C14.7069 7.45694 14.6636 7.44407 14.6195 7.4308Z" fill="#012169"/>
</g>
</g>
<defs>
<clipPath id="clip0_301_5832">
<rect width="65.2199" height="21.186" fill="white" transform="translate(0 0.407227)"/>
</clipPath>
</defs>
</svg>
