<svg width="42" height="32" viewBox="0 0 42 32" fill="none" xmlns="http://www.w3.org/2000/svg">
<g clip-path="url(#clip0_301_5825)">
<path d="M2.15385 0H39.8462C41.0357 0 42 1.14618 42 2.56V29.44C42 30.8539 41.0357 32 39.8462 32H2.15385C0.964331 32 0 30.8539 0 29.44V2.56C0 1.14618 0.964331 0 2.15385 0Z" fill="#0E4595"/>
<path d="M15.7878 20.9272L17.5841 10.2189H20.4574L18.6597 20.9272H15.7878ZM29.0398 10.4498C28.4707 10.2328 27.5786 10 26.4648 10C23.6258 10 21.6259 11.4523 21.609 13.5338C21.5929 15.0726 23.0366 15.9309 24.1264 16.4432C25.2448 16.968 25.6207 17.3027 25.6154 17.7715C25.6084 18.4892 24.7224 18.8171 23.8966 18.8171C22.7466 18.8171 22.1356 18.6548 21.192 18.255L20.8218 18.0849L20.4185 20.4821C21.0896 20.7809 22.3306 21.0399 23.619 21.0533C26.6393 21.0533 28.5998 19.6176 28.6222 17.3948C28.6329 16.1767 27.8675 15.2496 26.2099 14.4854C25.2056 13.99 24.5906 13.6594 24.5971 13.1579C24.5971 12.7128 25.1177 12.2368 26.2425 12.2368C27.182 12.222 27.8627 12.4301 28.393 12.647L28.6504 12.7707L29.0398 10.4498ZM36.4335 10.2187H34.2133C33.5255 10.2187 33.0108 10.4095 32.7088 11.1068L28.4418 20.9201H31.4588C31.4588 20.9201 31.9521 19.6005 32.0636 19.3109C32.3934 19.3109 35.3243 19.3155 35.7434 19.3155C35.8293 19.6904 36.0928 20.9201 36.0928 20.9201H38.759L36.4335 10.2184V10.2187ZM32.911 17.1335C33.1485 16.5165 34.0557 14.1401 34.0557 14.1401C34.0387 14.1686 34.2915 13.5201 34.4366 13.1181L34.6307 14.0414C34.6307 14.0414 35.181 16.5975 35.296 17.1335H32.911ZM13.3486 10.2187L10.5357 17.5213L10.236 16.0373C9.71231 14.3266 8.08077 12.4732 6.25684 11.5454L8.82885 20.9101L11.8688 20.9066L16.3921 10.2186H13.3486" fill="white"/>
<path d="M7.91086 8.69553H3.27788L3.24121 8.91833C6.84556 9.8047 9.23052 11.9467 10.2207 14.5202L9.21329 9.59935C9.03936 8.92134 8.53499 8.719 7.91096 8.69531" fill="#F2AE14"/>
</g>
<defs>
<clipPath id="clip0_301_5825">
<rect width="42" height="32" fill="white"/>
</clipPath>
</defs>
</svg>
